<svg width="22" height="26" viewBox="0 0 22 26" fill="none" xmlns="http://www.w3.org/2000/svg">
<path d="M7.74996 3.25H5.58329C5.58329 1.40833 6.99163 0 8.83329 0V2.16667C8.18329 2.16667 7.74996 2.6 7.74996 3.25ZM16.4166 3.25H14.25C14.25 2.6 13.8166 2.16667 13.1666 2.16667V0C15.0083 0 16.4166 1.40833 16.4166 3.25ZM16.4166 6.5H5.58329V3.25H7.74996V4.33333H14.25V3.25H16.4166V6.5ZM8.83329 0H13.1666V2.16667H8.83329V0Z" fill="#F2EBEE"/>
<path d="M20.75 6.5H1.24996C0.599959 6.5 0.166626 6.06667 0.166626 5.41667C0.166626 4.76667 0.599959 4.33333 1.24996 4.33333H20.75C21.4 4.33333 21.8333 4.76667 21.8333 5.41667C21.8333 6.06667 21.4 6.5 20.75 6.5ZM18.5833 26H3.41663C2.76663 26 2.33329 25.5667 2.33329 24.9167V9.75C2.33329 9.1 2.76663 8.66667 3.41663 8.66667H18.5833C19.2333 8.66667 19.6666 9.1 19.6666 9.75V24.9167C19.6666 25.5667 19.2333 26 18.5833 26ZM4.49996 23.8333H17.5V10.8333H4.49996V23.8333Z" fill="#F2EBEE"/>
<path d="M8.83329 21.6667C8.18329 21.6667 7.74996 21.2333 7.74996 20.5833V14.0833C7.74996 13.4333 8.18329 13 8.83329 13C9.48329 13 9.91663 13.4333 9.91663 14.0833V20.5833C9.91663 21.2333 9.48329 21.6667 8.83329 21.6667ZM13.1666 21.6667C12.5166 21.6667 12.0833 21.2333 12.0833 20.5833V14.0833C12.0833 13.4333 12.5166 13 13.1666 13C13.8166 13 14.25 13.4333 14.25 14.0833V20.5833C14.25 21.2333 13.8166 21.6667 13.1666 21.6667Z" fill="#F2EBEE"/>
</svg>
