<svg width="512" height="512" viewBox="0 0 512 512" class="vari-color" xmlns="http://www.w3.org/2000/svg">
<path d="M437.02 74.98C389.01 26.9705 323.896 -0.000946045 256 -0.000946045C188.104 -0.000946045 122.989 26.9705 74.98 74.98C26.9705 122.989 -0.000976562 188.104 -0.000976562 256C-0.000976562 323.896 26.9705 389.011 74.98 437.02C122.989 485.029 188.104 512.001 256 512.001C323.896 512.001 389.01 485.029 437.02 437.02C485.029 389.011 512.001 323.896 512.001 256C512.001 188.104 485.029 122.989 437.02 74.98ZM263.5 15.129C324.829 16.8626 383.149 42.0862 426.413 85.589C439.539 98.7024 451.118 113.277 460.925 129.027L404.487 161.612C389.278 137.691 368.518 117.795 343.972 103.616C319.427 89.4375 291.82 81.3945 263.5 80.171V15.129ZM284.86 247.999L329.574 222.183C334.466 232.786 337 244.324 337 256.001C337 267.678 334.466 279.216 329.574 289.819L284.86 264.003C286.38 258.777 286.38 253.225 284.86 247.999ZM322.052 302.797C315.307 312.324 306.583 320.28 296.477 326.121C286.371 331.963 275.122 335.551 263.5 336.64V285.006C268.721 283.584 273.469 280.797 277.256 276.933L322.052 302.797ZM335.102 310.331L391.488 342.886C377.605 364.531 358.742 382.538 336.475 395.401C314.209 408.263 289.186 415.608 263.5 416.82V351.709C277.764 350.581 291.595 346.281 303.983 339.122C316.371 331.962 327.003 322.126 335.102 310.33V310.331ZM342.626 297.355C348.797 284.443 352 270.313 352 256.001C352 241.69 348.797 227.56 342.626 214.648L399.006 182.097C410.83 204.938 417.001 230.282 417.001 256.001C417.001 281.721 410.83 307.065 399.006 329.906L342.626 297.355ZM263.5 95.18C289.186 96.3922 314.209 103.737 336.476 116.6C358.742 129.462 377.605 147.469 391.488 169.115L335.102 201.669C327.003 189.874 316.371 180.037 303.983 172.878C291.595 165.719 277.764 161.418 263.5 160.291V95.18ZM263.5 175.36C275.122 176.449 286.371 180.038 296.477 185.879C306.583 191.721 315.307 199.677 322.052 209.204L277.256 235.067C273.469 231.202 268.721 228.416 263.5 226.993V175.36ZM85.587 85.587C128.851 42.0842 187.171 16.8606 248.5 15.127V80.171C220.18 81.3943 192.573 89.4371 168.028 103.616C143.482 117.795 122.722 137.69 107.513 161.611L51.075 129.027C60.8817 113.276 72.4613 98.701 85.587 85.587ZM227.14 264.002L182.426 289.818C177.534 279.215 175 267.677 175 256C175 244.323 177.534 232.785 182.426 222.182L227.14 247.998C225.619 253.224 225.619 258.776 227.14 264.002ZM189.948 209.205C196.693 199.678 205.417 191.721 215.523 185.879C225.629 180.038 236.878 176.449 248.5 175.36V226.993C243.279 228.416 238.531 231.202 234.744 235.067L189.948 209.205ZM176.898 201.671L120.511 169.116C134.393 147.47 153.257 129.463 175.524 116.6C197.79 103.737 222.813 96.3922 248.5 95.18V160.29C234.236 161.418 220.405 165.718 208.017 172.878C195.628 180.037 184.996 189.874 176.898 201.67V201.671ZM169.374 297.354L112.994 329.904C101.17 307.063 94.9997 281.719 94.9997 256C94.9997 230.281 101.17 204.937 112.994 182.096L169.374 214.646C163.203 227.559 160 241.689 160 256C160 270.311 163.203 284.441 169.374 297.354ZM15 256C14.9112 216.22 24.7212 177.044 43.546 142L99.997 174.593C86.8606 199.718 79.9996 227.649 79.9996 256C79.9996 284.352 86.8606 312.283 99.997 337.408L43.546 370C24.7211 334.956 14.9111 295.78 15 256ZM248.5 496.873C187.171 495.14 128.851 469.916 85.587 426.413C72.4613 413.299 60.8817 398.725 51.075 382.974L107.513 350.39C122.722 374.311 143.482 394.206 168.028 408.385C192.573 422.564 220.18 430.607 248.5 431.83V496.873ZM248.5 416.82C222.814 415.608 197.791 408.263 175.524 395.401C153.257 382.538 134.394 364.531 120.511 342.885L176.898 310.33C184.996 322.126 195.628 331.963 208.017 339.122C220.405 346.281 234.236 350.581 248.5 351.709V416.82ZM248.5 336.64C236.878 335.551 225.629 331.962 215.523 326.121C205.417 320.279 196.693 312.323 189.948 302.796L234.744 276.933C238.531 280.797 243.279 283.584 248.5 285.006V336.64ZM241 256C241 253.033 241.88 250.133 243.528 247.666C245.176 245.2 247.519 243.277 250.26 242.142C253.001 241.006 256.017 240.709 258.926 241.288C261.836 241.867 264.509 243.296 266.607 245.393C268.704 247.491 270.133 250.164 270.712 253.074C271.291 255.983 270.993 258.999 269.858 261.74C268.723 264.481 266.8 266.824 264.334 268.472C261.867 270.12 258.967 271 256 271C252.053 270.9 248.295 269.288 245.504 266.496C242.712 263.705 241.1 259.947 241 256ZM426.413 426.412C383.149 469.915 324.829 495.138 263.5 496.872V431.83C291.82 430.607 319.426 422.564 343.972 408.385C368.518 394.206 389.278 374.311 404.487 350.39L460.925 382.974C451.118 398.724 439.539 413.299 426.413 426.412ZM412.003 337.409C425.14 312.284 432.001 284.353 432.001 256C432.001 227.648 425.14 199.717 412.003 174.592L468.454 142C487.195 177.076 497 216.232 497 256.001C497 295.77 487.195 334.926 468.454 370.002L412.003 337.409Z" class="vari-color"/>
</svg>
