<svg width="512" height="512" viewBox="0 0 512 512" fill="none" xmlns="http://www.w3.org/2000/svg">
<path fill-rule="evenodd" clip-rule="evenodd" d="M232.426 9.3114C238.818 3.32867 247.245 0 256 0C264.755 0 273.182 3.32867 279.574 9.3114L333.07 59.3598C335.103 61.2665 337.759 62.3699 340.545 62.4649L413.774 64.8799C422.528 65.1671 430.844 68.773 437.037 74.9662C443.23 81.1594 446.836 89.4763 447.123 98.2302L449.538 171.44C449.627 174.222 450.722 176.878 452.62 178.915L502.689 232.413C508.671 238.806 512 247.233 512 255.988C512 264.744 508.671 273.171 502.689 279.564L452.62 333.062C450.722 335.099 449.627 337.755 449.538 340.537L447.1 413.747C446.813 422.501 443.207 430.818 437.014 437.011C430.821 443.204 422.505 446.81 413.751 447.097L340.545 449.512C337.759 449.607 335.103 450.71 333.07 452.617L279.574 502.689C273.182 508.671 264.755 512 256 512C247.245 512 238.818 508.671 232.426 502.689L178.953 452.617C176.92 450.71 174.264 449.607 171.478 449.512L98.2257 447.12C89.4723 446.833 81.1558 443.227 74.9629 437.034C68.7699 430.841 65.1642 422.524 64.877 413.77L62.4621 340.56C62.3734 337.778 61.2784 335.122 59.3802 333.085L9.31099 279.587C3.32852 273.194 0 264.767 0 256.011C0 247.256 3.32852 238.829 9.31099 232.436L59.3802 178.938C61.2784 176.901 62.3734 174.245 62.4621 171.463L64.9 98.2532C65.1872 89.4993 68.7929 81.1824 74.9859 74.9892C81.1788 68.796 89.4953 65.1901 98.2487 64.9029L171.455 62.4878C174.241 62.3929 176.897 61.2895 178.93 59.3828L232.403 9.3344L232.426 9.3114ZM263.866 26.1015C261.735 24.1095 258.928 23.0013 256.012 23.0013C253.095 23.0013 250.288 24.1095 248.157 26.1015L194.661 76.127C188.559 81.8386 180.591 85.1405 172.237 85.419L99.0077 87.8571C96.0925 87.9546 93.3233 89.1563 91.2608 91.2189C89.1983 93.2815 87.9967 96.0508 87.8991 98.9662L85.4842 172.176C85.2112 180.538 81.9091 188.515 76.1926 194.624L26.1234 248.099C24.1248 250.231 23.0125 253.043 23.0125 255.965C23.0125 258.888 24.1248 261.7 26.1234 263.832L76.1926 317.307C81.9091 323.416 85.2112 331.393 85.4842 339.755L87.8991 412.965C87.9967 415.88 89.1983 418.649 91.2608 420.712C93.3233 422.775 96.0925 423.976 99.0077 424.074L172.237 426.512C180.591 426.791 188.559 430.092 194.661 435.804L248.157 485.852C250.288 487.844 253.095 488.953 256.012 488.953C258.928 488.953 261.735 487.844 263.866 485.852L317.362 435.804C323.464 430.092 331.432 426.791 339.786 426.512L413.015 424.074C415.93 423.976 418.7 422.775 420.762 420.712C422.825 418.649 424.026 415.88 424.124 412.965L426.539 339.755C426.812 331.393 430.114 323.416 435.83 317.307L485.9 263.832C487.898 261.7 489.011 258.888 489.011 255.965C489.011 253.043 487.898 250.231 485.9 248.099L435.83 194.624C430.114 188.515 426.812 180.538 426.539 172.176L424.124 98.9662C424.026 96.0508 422.825 93.2815 420.762 91.2189C418.7 89.1563 415.93 87.9546 413.015 87.8571L339.786 85.419C331.432 85.1405 323.464 81.8386 317.362 76.127L263.866 26.0785V26.1015Z" fill="black"/>
<path fill-rule="evenodd" clip-rule="evenodd" d="M214.602 133.052C234.485 146.8 250.733 165.17 261.95 186.584C273.167 207.997 279.018 231.815 278.999 255.988C279.016 280.162 273.165 303.978 261.948 325.392C250.731 346.805 234.483 365.175 214.602 378.925C233.21 383.439 252.601 383.669 271.312 379.598C290.022 375.527 307.565 367.261 322.616 355.424C337.668 343.586 349.835 328.486 358.202 311.262C366.569 294.037 370.916 275.138 370.916 255.988C370.916 236.839 366.569 217.94 358.202 200.715C349.835 183.491 337.668 168.391 322.616 156.553C307.565 144.716 290.022 136.45 271.312 132.379C252.601 128.308 233.21 128.538 214.602 133.052ZM182.173 120.057C204.947 109.629 229.977 105.092 254.963 106.86C279.949 108.629 304.09 116.648 325.168 130.181C346.247 143.714 363.587 162.326 375.597 184.309C387.607 206.291 393.901 230.939 393.901 255.988C393.901 281.038 387.607 305.686 375.597 327.668C363.587 349.651 346.247 368.263 325.168 381.796C304.09 395.329 279.949 403.348 254.963 405.117C229.977 406.885 204.947 402.348 182.173 391.92C180.171 391.002 178.476 389.529 177.287 387.676C176.098 385.823 175.466 383.668 175.466 381.466C175.466 379.264 176.098 377.109 177.287 375.256C178.476 373.403 180.171 371.93 182.173 371.012C204.212 360.93 222.891 344.728 235.987 324.334C249.083 303.941 256.046 280.214 256.046 255.977C256.046 231.74 249.083 208.013 235.987 187.62C222.891 167.226 204.212 151.024 182.173 140.942C180.178 140.021 178.489 138.548 177.304 136.698C176.12 134.847 175.491 132.696 175.491 130.499C175.491 128.302 176.12 126.151 177.304 124.301C178.489 122.45 180.178 120.978 182.173 120.057Z" fill="black" class="vari-color"/>
</svg>
